<mxfile host="app.diagrams.net" modified="2023-04-05T05:42:28.444Z" agent="Mozilla/5.0 (Windows NT 10.0; Win64; x64) AppleWebKit/537.36 (KHTML, like Gecko) Chrome/111.0.0.0 Safari/537.36" etag="Lab5NXsjMPFt3m6_ngUj" version="21.1.3" type="device">
  <diagram name="Page-1" id="03018318-947c-dd8e-b7a3-06fadd420f32">
    <mxGraphModel dx="1134" dy="666" grid="1" gridSize="10" guides="1" tooltips="1" connect="1" arrows="1" fold="1" page="1" pageScale="1" pageWidth="1100" pageHeight="850" background="none" math="0" shadow="0">
      <root>
        <mxCell id="0" />
        <mxCell id="1" parent="0" />
        <mxCell id="677b7b8949515195-2" value="LOGO" style="whiteSpace=wrap;html=1;rounded=0;shadow=0;labelBackgroundColor=none;strokeWidth=1;fontFamily=Verdana;fontSize=28;align=center;comic=1;" parent="1" vertex="1">
          <mxGeometry x="40" y="60" width="190" height="50" as="geometry" />
        </mxCell>
        <mxCell id="677b7b8949515195-3" value="Search" style="strokeWidth=1;shadow=0;dashed=0;align=center;html=1;shape=mxgraph.mockup.forms.searchBox;strokeColor=#999999;mainText=;strokeColor2=#008cff;fontColor=#666666;fontSize=17;align=left;spacingLeft=3;rounded=0;labelBackgroundColor=none;comic=1;" parent="1" vertex="1">
          <mxGeometry x="270" y="49" width="590" height="60" as="geometry" />
        </mxCell>
        <mxCell id="677b7b8949515195-9" value="" style="line;strokeWidth=1;html=1;rounded=0;shadow=0;labelBackgroundColor=none;fillColor=none;fontFamily=Verdana;fontSize=14;fontColor=#000000;align=center;comic=1;" parent="1" vertex="1">
          <mxGeometry x="20" y="140" width="1060" height="10" as="geometry" />
        </mxCell>
        <mxCell id="677b7b8949515195-10" value="" style="whiteSpace=wrap;html=1;rounded=0;shadow=0;labelBackgroundColor=none;strokeWidth=1;fillColor=none;fontFamily=Verdana;fontSize=12;align=center;comic=1;" parent="1" vertex="1">
          <mxGeometry x="30" y="160" width="1040" height="50" as="geometry" />
        </mxCell>
        <mxCell id="677b7b8949515195-11" value="Section 1" style="text;html=1;points=[];align=left;verticalAlign=top;spacingTop=-4;fontSize=14;fontFamily=Verdana" parent="1" vertex="1">
          <mxGeometry x="70" y="175" width="60" height="20" as="geometry" />
        </mxCell>
        <mxCell id="677b7b8949515195-12" value="Section 2" style="text;html=1;points=[];align=left;verticalAlign=top;spacingTop=-4;fontSize=14;fontFamily=Verdana" parent="1" vertex="1">
          <mxGeometry x="190" y="175" width="60" height="20" as="geometry" />
        </mxCell>
        <mxCell id="677b7b8949515195-13" value="Section 3" style="text;html=1;points=[];align=left;verticalAlign=top;spacingTop=-4;fontSize=14;fontFamily=Verdana" parent="1" vertex="1">
          <mxGeometry x="320" y="175" width="60" height="20" as="geometry" />
        </mxCell>
        <mxCell id="677b7b8949515195-14" value="Section 4" style="text;html=1;points=[];align=left;verticalAlign=top;spacingTop=-4;fontSize=14;fontFamily=Verdana" parent="1" vertex="1">
          <mxGeometry x="450" y="175" width="60" height="20" as="geometry" />
        </mxCell>
        <mxCell id="677b7b8949515195-16" value="" style="verticalLabelPosition=bottom;shadow=0;dashed=0;align=center;html=1;verticalAlign=top;strokeWidth=1;shape=mxgraph.mockup.graphics.simpleIcon;strokeColor=#999999;rounded=0;labelBackgroundColor=none;fontFamily=Verdana;fontSize=14;fontColor=#000000;comic=1;" parent="1" vertex="1">
          <mxGeometry x="80" y="240" width="940" height="310" as="geometry" />
        </mxCell>
        <mxCell id="ysu7Z5ppGbEXK7EoOFLw-2" value="" style="ellipse;whiteSpace=wrap;html=1;aspect=fixed;" vertex="1" parent="1">
          <mxGeometry x="900" y="45" width="80" height="80" as="geometry" />
        </mxCell>
        <mxCell id="ysu7Z5ppGbEXK7EoOFLw-3" value="1 product" style="text;html=1;align=center;verticalAlign=middle;resizable=0;points=[];autosize=1;strokeColor=none;fillColor=none;" vertex="1" parent="1">
          <mxGeometry x="1000" y="15" width="70" height="30" as="geometry" />
        </mxCell>
        <mxCell id="ysu7Z5ppGbEXK7EoOFLw-4" value="&lt;font style=&quot;font-size: 29px;&quot;&gt;$27.90&lt;/font&gt;" style="text;html=1;align=center;verticalAlign=middle;resizable=0;points=[];autosize=1;strokeColor=none;fillColor=none;" vertex="1" parent="1">
          <mxGeometry x="980" y="59" width="110" height="50" as="geometry" />
        </mxCell>
        <mxCell id="ysu7Z5ppGbEXK7EoOFLw-6" value="photos" style="text;html=1;strokeColor=none;fillColor=none;align=center;verticalAlign=middle;whiteSpace=wrap;rounded=0;fontSize=29;" vertex="1" parent="1">
          <mxGeometry x="520" y="380" width="60" height="30" as="geometry" />
        </mxCell>
        <mxCell id="ysu7Z5ppGbEXK7EoOFLw-8" value="" style="rounded=0;whiteSpace=wrap;html=1;" vertex="1" parent="1">
          <mxGeometry x="140" y="610" width="200" height="280" as="geometry" />
        </mxCell>
        <mxCell id="ysu7Z5ppGbEXK7EoOFLw-7" value="" style="whiteSpace=wrap;html=1;aspect=fixed;" vertex="1" parent="1">
          <mxGeometry x="157.5" y="630" width="165" height="165" as="geometry" />
        </mxCell>
        <mxCell id="ysu7Z5ppGbEXK7EoOFLw-10" value="" style="rounded=1;whiteSpace=wrap;html=1;" vertex="1" parent="1">
          <mxGeometry x="180" y="810" width="120" height="60" as="geometry" />
        </mxCell>
        <mxCell id="e7K5knUFJKrul63wU_GS-1" value="butt" style="rounded=0;whiteSpace=wrap;html=1;" vertex="1" parent="1">
          <mxGeometry x="465" y="610" width="200" height="280" as="geometry" />
        </mxCell>
        <mxCell id="e7K5knUFJKrul63wU_GS-2" value="" style="whiteSpace=wrap;html=1;aspect=fixed;" vertex="1" parent="1">
          <mxGeometry x="482.5" y="630" width="165" height="165" as="geometry" />
        </mxCell>
        <mxCell id="e7K5knUFJKrul63wU_GS-3" value="" style="rounded=1;whiteSpace=wrap;html=1;" vertex="1" parent="1">
          <mxGeometry x="505" y="810" width="120" height="60" as="geometry" />
        </mxCell>
        <mxCell id="e7K5knUFJKrul63wU_GS-4" value="" style="rounded=0;whiteSpace=wrap;html=1;" vertex="1" parent="1">
          <mxGeometry x="770" y="600" width="200" height="280" as="geometry" />
        </mxCell>
        <mxCell id="e7K5knUFJKrul63wU_GS-5" value="" style="whiteSpace=wrap;html=1;aspect=fixed;" vertex="1" parent="1">
          <mxGeometry x="787.5" y="620" width="165" height="165" as="geometry" />
        </mxCell>
        <mxCell id="e7K5knUFJKrul63wU_GS-6" value="" style="rounded=1;whiteSpace=wrap;html=1;" vertex="1" parent="1">
          <mxGeometry x="810" y="800" width="120" height="60" as="geometry" />
        </mxCell>
        <mxCell id="e7K5knUFJKrul63wU_GS-7" value="photo" style="text;html=1;strokeColor=none;fillColor=none;align=center;verticalAlign=middle;whiteSpace=wrap;rounded=0;" vertex="1" parent="1">
          <mxGeometry x="210" y="698" width="60" height="30" as="geometry" />
        </mxCell>
        <mxCell id="e7K5knUFJKrul63wU_GS-8" value="photo" style="text;html=1;strokeColor=none;fillColor=none;align=center;verticalAlign=middle;whiteSpace=wrap;rounded=0;" vertex="1" parent="1">
          <mxGeometry x="535" y="687.5" width="60" height="30" as="geometry" />
        </mxCell>
        <mxCell id="e7K5knUFJKrul63wU_GS-9" value="photo" style="text;html=1;strokeColor=none;fillColor=none;align=center;verticalAlign=middle;whiteSpace=wrap;rounded=0;" vertex="1" parent="1">
          <mxGeometry x="850" y="687.5" width="60" height="30" as="geometry" />
        </mxCell>
        <mxCell id="e7K5knUFJKrul63wU_GS-10" value="button" style="text;html=1;strokeColor=none;fillColor=none;align=center;verticalAlign=middle;whiteSpace=wrap;rounded=0;" vertex="1" parent="1">
          <mxGeometry x="200" y="825" width="60" height="30" as="geometry" />
        </mxCell>
        <mxCell id="e7K5knUFJKrul63wU_GS-11" value="button" style="text;html=1;strokeColor=none;fillColor=none;align=center;verticalAlign=middle;whiteSpace=wrap;rounded=0;" vertex="1" parent="1">
          <mxGeometry x="535" y="825" width="60" height="30" as="geometry" />
        </mxCell>
        <mxCell id="e7K5knUFJKrul63wU_GS-13" value="button" style="text;html=1;strokeColor=none;fillColor=none;align=center;verticalAlign=middle;whiteSpace=wrap;rounded=0;" vertex="1" parent="1">
          <mxGeometry x="840" y="815" width="60" height="30" as="geometry" />
        </mxCell>
      </root>
    </mxGraphModel>
  </diagram>
</mxfile>
